<svg width="17" height="16" viewBox="0 0 17 16" fill="none" xmlns="http://www.w3.org/2000/svg">
<path d="M14.2569 6.66666C14.2569 11.3333 8.14679 15.3333 8.14679 15.3333C8.14679 15.3333 2.0367 11.3333 2.0367 6.66666C2.0367 5.07536 2.68044 3.54923 3.8263 2.42402C4.97217 1.2988 6.52629 0.666656 8.14679 0.666656C9.76729 0.666656 11.3214 1.2988 12.4673 2.42402C13.6131 3.54923 14.2569 5.07536 14.2569 6.66666Z" stroke="white" stroke-linecap="round" stroke-linejoin="round"/>
<path d="M8.14679 8.66666C9.27163 8.66666 10.1835 7.77123 10.1835 6.66666C10.1835 5.56209 9.27163 4.66666 8.14679 4.66666C7.02195 4.66666 6.11009 5.56209 6.11009 6.66666C6.11009 7.77123 7.02195 8.66666 8.14679 8.66666Z" stroke="white" stroke-linecap="round" stroke-linejoin="round"/>
</svg>
